<svg width="22" height="22" viewBox="0 0 22 22" fill="none" xmlns="http://www.w3.org/2000/svg">
<path d="M3.92999 3.92993L8.16999 8.16993M13.83 13.8301L18.07 18.0701M13.83 8.17001L17.36 4.64001M3.92999 18.0701L8.16999 13.8301M21 11C21 16.5228 16.5228 21 11 21C5.47715 21 1 16.5228 1 11C1 5.47715 5.47715 1 11 1C16.5228 1 21 5.47715 21 11ZM15 11C15 13.2091 13.2091 15 11 15C8.79086 15 7 13.2091 7 11C7 8.79086 8.79086 7 11 7C13.2091 7 15 8.79086 15 11Z" stroke="#4065FF" stroke-width="2" stroke-linecap="round" stroke-linejoin="round"/>
</svg>
