<svg width="18" height="18" viewBox="0 0 18 18" fill="none" xmlns="http://www.w3.org/2000/svg">
  <path d="M6.672 6.60002C6.86008 6.06535 7.23132 5.6145 7.71996 5.32732C8.20861 5.04014 8.78312 4.93517 9.34174 5.03099C9.90037 5.1268 10.4071 5.41724 10.7721 5.85084C11.1371 6.28444 11.3368 6.83323 11.336 7.40002C11.336 9.00002 8.936 9.80002 8.936 9.80002M9 13H9.008M17 9C17 13.4183 13.4183 17 9 17C4.58172 17 1 13.4183 1 9C1 4.58172 4.58172 1 9 1C13.4183 1 17 4.58172 17 9Z" stroke="#808292" stroke-width="2" stroke-linecap="round" stroke-linejoin="round"/>
</svg>
