<svg xmlns="http://www.w3.org/2000/svg" width="20" height="20" fill="none" xmlns:v="https://vecta.io/nano"><path fill-rule="evenodd" d="M7.576 0a1.11 1.11 0 0 1 1.111 1.111v1.313h2.626V1.111a1.11 1.11 0 0 1 2.222 0v1.313h1.313a2.73 2.73 0 0 1 2.727 2.727v1.313h1.313a1.11 1.11 0 1 1 0 2.222h-1.313v1.818h1.313a1.11 1.11 0 1 1 0 2.222h-1.313v2.121a2.73 2.73 0 0 1-2.727 2.727h-1.313v1.313a1.11 1.11 0 1 1-2.222 0v-1.313H8.687v1.313a1.11 1.11 0 1 1-2.222 0v-1.313H5.152a2.73 2.73 0 0 1-2.727-2.727v-2.121H1.111a1.11 1.11 0 1 1 0-2.222h1.313V8.687H1.111a1.11 1.11 0 1 1 0-2.222h1.313V5.152a2.73 2.73 0 0 1 2.727-2.727h1.313V1.111A1.11 1.11 0 0 1 7.576 0zM5.152 4.646c-.279 0-.505.226-.505.505v9.697c0 .279.226.505.505.505h9.697c.279 0 .505-.226.505-.505V5.152c0-.279-.226-.505-.505-.505H5.152zm1.313 2.929a1.11 1.11 0 0 1 1.111-1.111h4.848a1.11 1.11 0 0 1 1.111 1.111v4.848a1.11 1.11 0 0 1-1.111 1.111H7.576a1.11 1.11 0 0 1-1.111-1.111V7.576zm2.222 1.111v2.626h2.626V8.687H8.687z" fill="#fff"/></svg>