<svg xmlns="http://www.w3.org/2000/svg" width="18" height="20" fill="none" xmlns:v="https://vecta.io/nano"><path fill-rule="evenodd" d="M4.517 1.879A6.3 6.3 0 0 1 9 0a6.3 6.3 0 0 1 4.483 1.879c1.186 1.201 1.851 2.828 1.851 4.522 0 3.005.635 4.864 1.214 5.939.291.54.573.892.767 1.099.097.104.172.172.217.209l.042.034a1 1 0 0 1-.572 1.82H1a1 1 0 0 1-.573-1.82l.042-.034c.044-.037.12-.105.217-.209.194-.207.476-.559.767-1.099.579-1.075 1.214-2.934 1.214-5.939 0-1.694.664-3.32 1.851-4.522zM3.095 13.502h11.81l-.119-.214c-.754-1.4-1.453-3.592-1.453-6.888 0-1.171-.46-2.292-1.274-3.116A4.3 4.3 0 0 0 9 2a4.3 4.3 0 0 0-3.06 1.285c-.814.824-1.274 1.945-1.274 3.116 0 3.296-.699 5.488-1.453 6.888l-.119.214zm3.87 3.733a1 1 0 0 1 1.365.371.79.79 0 0 0 .287.29.76.76 0 0 0 .767 0 .79.79 0 0 0 .287-.29 1 1 0 1 1 1.735.994 2.79 2.79 0 0 1-1.014 1.023 2.76 2.76 0 0 1-2.782 0A2.79 2.79 0 0 1 6.594 18.6a1 1 0 0 1 .371-1.365z" fill="#808292"/></svg>