<svg width="14" height="14" viewBox="0 0 14 14" fill="none" xmlns="http://www.w3.org/2000/svg">
<path fill-rule="evenodd" clip-rule="evenodd" d="M5.95078 1.8792C3.7021 1.8792 1.8792 3.7021 1.8792 5.95078C1.8792 8.19945 3.7021 10.0224 5.95078 10.0224C8.19945 10.0224 10.0224 8.19945 10.0224 5.95078C10.0224 3.7021 8.19945 1.8792 5.95078 1.8792ZM0 5.95078C0 2.66425 2.66425 0 5.95078 0C9.2373 0 11.9016 2.66425 11.9016 5.95078C11.9016 7.27474 11.4692 8.49772 10.7379 9.48621C10.8327 9.53111 10.9216 9.59277 11 9.67118L13.7248 12.396C14.0917 12.7629 14.0917 13.3579 13.7248 13.7248C13.3579 14.0917 12.7629 14.0917 12.396 13.7248L9.67118 11C9.59277 10.9216 9.53111 10.8327 9.48621 10.7379C8.49772 11.4692 7.27474 11.9016 5.95078 11.9016C2.66425 11.9016 0 9.2373 0 5.95078Z" fill="#808292"/>
</svg>
