<svg xmlns="http://www.w3.org/2000/svg" width="18" height="18" fill="none" stroke="#808292" stroke-width="1.6" stroke-linejoin="round">
  <path d="M9 11.182a2.18 2.18 0 1 0 0-4.364 2.18 2.18 0 1 0 0 4.364z"/>
  <path d="M14.382 11.182a1.2 1.2 0 0 0 .24 1.324l.044.044c.135.135.242.296.316.472s.111.366.111.557-.038.38-.111.557-.18.337-.316.472-.296.242-.472.316-.366.111-.557.111-.38-.038-.557-.111-.337-.181-.472-.316l-.044-.044a1.2 1.2 0 0 0-1.324-.24 1.2 1.2 0 0 0-.727 1.098v.124c0 .386-.153.756-.426 1.029S9.444 17 9.058 17s-.756-.153-1.029-.426-.426-.643-.426-1.029v-.066a1.2 1.2 0 0 0-.785-1.098 1.2 1.2 0 0 0-1.324.24l-.044.044c-.135.135-.296.242-.472.316s-.366.111-.557.111-.38-.038-.557-.111-.337-.18-.472-.316-.243-.296-.316-.472-.111-.366-.111-.557.038-.38.111-.557.18-.337.316-.472l.044-.044a1.2 1.2 0 0 0 .24-1.324 1.2 1.2 0 0 0-1.098-.727h-.124c-.386 0-.756-.153-1.029-.426S1 9.444 1 9.058s.153-.756.426-1.029.643-.426 1.029-.426h.065a1.2 1.2 0 0 0 1.098-.785 1.2 1.2 0 0 0-.24-1.324l-.044-.044c-.135-.135-.243-.296-.316-.472s-.111-.366-.111-.557.038-.38.111-.557.18-.337.316-.472.296-.243.472-.316.366-.111.557-.111.38.038.557.111.337.18.472.316l.044.044a1.2 1.2 0 0 0 1.324.24h.058a1.2 1.2 0 0 0 .727-1.098v-.124c0-.386.153-.756.426-1.029S8.614 1 9 1s.756.153 1.028.426.426.643.426 1.029v.065a1.2 1.2 0 0 0 .727 1.098 1.2 1.2 0 0 0 1.324-.24l.044-.044c.135-.135.296-.243.472-.316s.366-.111.557-.111.38.038.557.111.337.18.472.316.242.296.316.472.111.366.111.557-.038.38-.111.557-.181.337-.316.472l-.044.044a1.2 1.2 0 0 0-.24 1.324v.058a1.2 1.2 0 0 0 1.098.727h.124c.386 0 .756.153 1.029.426S17 8.614 17 9s-.153.756-.426 1.028-.643.426-1.029.426h-.066a1.2 1.2 0 0 0-1.098.727z"/>
</svg>