<svg xmlns="http://www.w3.org/2000/svg" width="18" height="15" fill="none">
  <path d="M12.636 14v-1.444a2.88 2.88 0 0 0-.852-2.043 2.92 2.92 0 0 0-2.057-.846H3.909a2.92 2.92 0 0 0-2.057.846A2.88 2.88 0 0 0 1 12.556V14m16 0v-1.444c0-.64-.215-1.262-.61-1.768a2.91 2.91 0 0 0-1.572-1.027m-2.909-8.667a2.91 2.91 0 0 1 1.576 1.027c.396.507.611 1.13.611 1.771s-.215 1.265-.611 1.771a2.91 2.91 0 0 1-1.576 1.027M9.727 3.889a2.9 2.9 0 0 1-2.909 2.889 2.9 2.9 0 0 1-2.909-2.889A2.9 2.9 0 0 1 6.818 1a2.9 2.9 0 0 1 2.909 2.889z" stroke="#808292" stroke-width="1.5" stroke-linecap="round" stroke-linejoin="round"/>
</svg>